<svg xmlns="http://www.w3.org/2000/svg" version="1.1" xmlns:xlink="http://www.w3.org/1999/xlink" xmlns:svgjs="http://svgjs.dev/svgjs" width="1500" height="477" viewBox="0 0 1500 477"><g transform="matrix(1,0,0,1,-0.9090909090909918,0.3402913842700741)"><svg viewBox="0 0 396 126" data-background-color="#000000" preserveAspectRatio="xMidYMid meet" height="477" width="1500" xmlns="http://www.w3.org/2000/svg" xmlns:xlink="http://www.w3.org/1999/xlink"><g id="tight-bounds" transform="matrix(1,0,0,1,0.2400000000000091,-0.0898882901845468)"><svg viewBox="0 0 395.52 126.17977658036911" height="126.17977658036911" width="395.52"><g><svg viewBox="0 0 661.1866073496674 210.93340006399995" height="126.17977658036911" width="395.52"><g transform="matrix(1,0,0,1,265.6666073496674,60.49125282502549)"><svg viewBox="0 0 395.52 89.95089441394897" height="89.95089441394897" width="395.52"><g id="textblocktransform"><svg viewBox="0 0 395.52 89.95089441394897" height="89.95089441394897" width="395.52" id="textblock"><g><svg viewBox="0 0 395.52 89.95089441394897" height="89.95089441394897" width="395.52"><g transform="matrix(1,0,0,1,0,0)"><svg width="395.52" viewBox="3.56 -38.57 226.82 51.58" height="89.95089441394897" data-palette-color="url(#e8948c1c-8322-45ab-a643-f5a27601d9a0)"></svg></g></svg></g></svg></g></svg></g><g><svg viewBox="0 0 244.43135999999996 210.93340006399995" height="210.93340006399995" width="244.43135999999996"><g><svg xmlns="http://www.w3.org/2000/svg" xmlns:xlink="http://www.w3.org/1999/xlink" version="1.1" x="0" y="0" viewBox="5 11.167000000000002 90 77.666" enable-background="new 0 0 100 100" xml:space="preserve" height="210.93340006399995" width="244.43135999999996" class="icon-icon-0" data-fill-palette-color="accent" id="icon-0"></svg></g></svg></g></svg></g><defs></defs><mask id="73d137cc-37e6-402d-b082-90db376c74a8"><g id="SvgjsG1342"><svg viewBox="0 0 395.52 126.17977658036911" height="126.17977658036911" width="395.52"><g><svg viewBox="0 0 661.1866073496674 210.93340006399995" height="126.17977658036911" width="395.52"><g transform="matrix(1,0,0,1,265.6666073496674,60.49125282502549)"><svg viewBox="0 0 395.52 89.95089441394897" height="89.95089441394897" width="395.52"><g id="SvgjsG1341"><svg viewBox="0 0 395.52 89.95089441394897" height="89.95089441394897" width="395.52" id="SvgjsSvg1340"><g><svg viewBox="0 0 395.52 89.95089441394897" height="89.95089441394897" width="395.52"><g transform="matrix(1,0,0,1,0,0)"><svg width="395.52" viewBox="3.56 -38.57 226.82 51.58" height="89.95089441394897" data-palette-color="url(#e8948c1c-8322-45ab-a643-f5a27601d9a0)"><path d="M37.45-16.82L37.45-16.82 37.45-16.36Q37.4-14.31 37.02-12.11 36.65-9.91 35.96-7.71 35.28-5.52 34.33-3.37 33.37-1.22 32.19 0.74 31.01 2.71 29.64 4.43 28.27 6.15 26.76 7.47L26.76 7.47 23.12 5.37Q23.97 3.93 24.67 2.23 25.37 0.54 25.93-1.32 26.49-3.17 26.89-5.13 27.29-7.08 27.56-9.01 27.83-10.94 27.97-12.81 28.1-14.67 28.1-16.36L28.1-16.36Q28.1-17.68 28.09-19.35 28.08-21.02 27.89-22.75 27.71-24.49 27.29-26.14 26.88-27.78 26.06-29.08 25.24-30.37 23.96-31.15 22.68-31.93 20.78-31.93L20.78-31.93Q19.09-31.93 17.88-31.36 16.67-30.79 15.83-29.82 14.99-28.86 14.49-27.59 13.99-26.32 13.71-24.91 13.43-23.51 13.34-22.08 13.26-20.65 13.26-19.38L13.26-19.38 13.26-12.57 23.78-12.57 23.78-8.54 13.26-8.54 13.26 0 3.56 0 3.56-17.87Q3.56-21.7 4.79-25 6.01-28.3 8.24-30.73 10.47-33.15 13.61-34.53 16.75-35.91 20.61-35.91L20.61-35.91Q23.22-35.91 25.5-35.17 27.78-34.42 29.66-33.12 31.54-31.81 33.02-30.02 34.5-28.22 35.49-26.1 36.47-23.97 36.99-21.61 37.5-19.24 37.45-16.82ZM71.38-28.2L71.38-3.39Q71.38-0.02 70.38 2.95 69.38 5.93 67.48 8.17 65.57 10.4 62.8 11.71 60.03 13.01 56.49 13.01L56.49 13.01Q54.54 13.01 52.55 12.57 50.56 12.13 48.79 11.22 47.02 10.3 45.62 8.9 44.21 7.5 43.41 5.59L43.41 5.59 46.97 4.25Q47.43 5.44 48.18 6.45 48.92 7.45 49.9 8.17 50.88 8.89 52.05 9.29 53.22 9.69 54.51 9.69L54.51 9.69Q56.96 9.69 58.6 8.69 60.25 7.69 61.25 6.08 62.25 4.47 62.69 2.43 63.13 0.39 63.13-1.71L63.13-1.71 63.13-3.37Q61.67-1.37 59.6-0.4 57.54 0.56 55.08 0.56L55.08 0.56Q51.85 0.56 49.31-0.59 46.77-1.73 45.02-3.72 43.26-5.71 42.33-8.4 41.4-11.08 41.4-14.16L41.4-14.16Q41.4-17.24 42.33-19.92 43.26-22.61 45.02-24.6 46.77-26.59 49.31-27.73 51.85-28.88 55.08-28.88L55.08-28.88Q56.71-28.88 58.19-28.39 59.67-27.91 60.9-27.01 62.13-26.12 63.07-24.87 64.01-23.61 64.55-22.07L64.55-22.07 68.21-28.2 71.38-28.2ZM63.08-14.16L63.08-14.16Q63.08-15.26 62.97-16.48 62.86-17.7 62.6-18.9 62.33-20.09 61.85-21.18 61.37-22.27 60.63-23.11 59.89-23.95 58.84-24.44 57.79-24.93 56.39-24.93L56.39-24.93Q55-24.93 53.98-24.43 52.95-23.93 52.22-23.08 51.49-22.24 51.01-21.14 50.53-20.04 50.27-18.85 50-17.65 49.89-16.44 49.78-15.23 49.78-14.16L49.78-14.16Q49.78-13.09 49.89-11.87 50-10.64 50.27-9.45 50.53-8.25 51.01-7.15 51.49-6.05 52.22-5.21 52.95-4.37 53.98-3.87 55-3.37 56.39-3.37L56.39-3.37Q57.66-3.37 58.65-3.89 59.64-4.42 60.39-5.3 61.13-6.18 61.64-7.3 62.16-8.42 62.47-9.62 62.79-10.82 62.94-12 63.08-13.18 63.08-14.16ZM94.67-19.85L94.67-15.36 78.27-15.36 78.27-19.85 94.67-19.85ZM135.78-17.63L135.78-17.63Q135.78-15.06 135.1-12.76 134.42-10.45 133.18-8.5 131.95-6.54 130.24-4.97 128.53-3.39 126.47-2.29 124.41-1.2 122.05-0.6 119.69 0 117.2 0L117.2 0 101.7 0 101.7-35.16 117.2-35.16Q119.69-35.16 122.04-34.57 124.38-33.98 126.45-32.9 128.51-31.81 130.23-30.25 131.95-28.69 133.18-26.75 134.42-24.8 135.1-22.5 135.78-20.19 135.78-17.63ZM125.94-17.63L125.94-17.63Q125.94-20.48 125.25-23.06 124.55-25.63 123.09-27.59 121.62-29.54 119.37-30.69 117.11-31.84 113.96-31.84L113.96-31.84 111.39-31.84 111.39-3.42 113.96-3.42Q117.06-3.42 119.32-4.58 121.57-5.74 123.05-7.7 124.53-9.67 125.24-12.23 125.94-14.79 125.94-17.63ZM147.74-13.38L147.74-13.38Q149.26-13.04 150.77-12.84 152.28-12.65 153.82-12.65L153.82-12.65Q155.43-12.65 156.81-12.95 158.19-13.26 159.21-13.98 160.22-14.7 160.81-15.89 161.39-17.09 161.39-18.87L161.39-18.87Q161.39-20.31 161-21.51 160.61-22.71 159.84-23.56 159.07-24.41 157.95-24.89 156.83-25.37 155.34-25.37L155.34-25.37Q153.95-25.37 152.83-24.85 151.72-24.34 150.88-23.47 150.04-22.61 149.44-21.46 148.84-20.31 148.45-19.07 148.06-17.82 147.89-16.55 147.72-15.28 147.72-14.16L147.72-14.16Q147.72-13.96 147.72-13.77 147.72-13.57 147.74-13.38ZM168.08-18.95L168.08-18.95Q168.08-17.21 167.52-15.86 166.96-14.5 165.99-13.48 165.03-12.45 163.76-11.74 162.49-11.04 161.05-10.58 159.61-10.13 158.08-9.94 156.56-9.74 155.12-9.74L155.12-9.74Q153.29-9.74 151.5-10 149.72-10.25 147.99-10.82L147.99-10.82Q148.26-9.2 148.84-7.75 149.43-6.3 150.41-5.21 151.38-4.13 152.81-3.49 154.24-2.86 156.19-2.86L156.19-2.86Q157.49-2.86 158.66-3.25 159.83-3.64 160.81-4.35 161.78-5.05 162.53-6.03 163.27-7.01 163.74-8.2L163.74-8.2 167.3-6.88Q166.49-4.96 165.09-3.55 163.69-2.15 161.92-1.23 160.15-0.32 158.16 0.12 156.17 0.56 154.21 0.56L154.21 0.56Q150.99 0.56 148.26-0.52 145.52-1.61 143.54-3.56 141.57-5.52 140.44-8.23 139.32-10.94 139.32-14.16L139.32-14.16Q139.32-17.38 140.44-20.09 141.57-22.8 143.54-24.76 145.52-26.71 148.26-27.8 150.99-28.88 154.21-28.88L154.21-28.88Q155.78-28.88 157.41-28.66 159.05-28.44 160.59-27.97 162.12-27.49 163.49-26.73 164.86-25.98 165.87-24.87 166.88-23.75 167.48-22.29 168.08-20.83 168.08-18.95ZM197.5-9.01L197.5-9.01Q197.5-7.15 196.96-5.71 196.42-4.27 195.5-3.21 194.57-2.15 193.3-1.43 192.03-0.71 190.58-0.27 189.12 0.17 187.54 0.37 185.95 0.56 184.39 0.56L184.39 0.56Q182.29 0.56 180.68 0.29 179.06 0.02 177.6-0.57 176.13-1.17 174.68-2.12 173.23-3.08 171.45-4.44L171.45-4.44 176.26-8.37Q176.92-7.13 178-6.12 179.09-5.1 180.26-4.37 181.43-3.64 182.53-3.25 183.63-2.86 184.31-2.86L184.31-2.86Q184.88-2.86 185.58-2.89 186.29-2.93 187.02-3.04 187.76-3.15 188.46-3.37 189.17-3.59 189.72-3.97 190.27-4.35 190.6-4.92 190.93-5.49 190.93-6.3L190.93-6.3Q190.93-7.13 190.5-7.75 190.08-8.37 189.39-8.84 188.71-9.3 187.83-9.62 186.95-9.94 186.06-10.18 185.17-10.42 184.34-10.61 183.51-10.79 182.9-10.96L182.9-10.96Q181.77-11.28 180.53-11.61 179.28-11.94 178.06-12.37 176.84-12.79 175.73-13.38 174.62-13.96 173.78-14.78 172.94-15.6 172.44-16.71 171.94-17.82 171.94-19.31L171.94-19.31Q171.94-22.05 173.02-23.89 174.11-25.73 175.89-26.84 177.67-27.95 179.94-28.42 182.21-28.88 184.56-28.88L184.56-28.88Q186.17-28.88 187.95-28.55 189.73-28.22 191.42-27.58 193.1-26.93 194.57-26 196.03-25.07 197.01-23.88L197.01-23.88 192.2-19.92Q191.66-21.39 190.8-22.44 189.93-23.49 188.92-24.16 187.9-24.83 186.84-25.15 185.78-25.46 184.88-25.46L184.88-25.46Q184-25.46 182.9-25.39 181.8-25.32 180.83-24.98 179.87-24.63 179.2-23.94 178.53-23.24 178.53-22.02L178.53-22.02Q178.53-21.14 178.93-20.52 179.33-19.9 179.99-19.45 180.65-18.99 181.49-18.69 182.34-18.38 183.22-18.15 184.09-17.92 184.92-17.75 185.75-17.58 186.41-17.38L186.41-17.38Q187.54-17.07 188.79-16.74 190.05-16.41 191.27-15.98 192.49-15.55 193.63-14.98 194.76-14.4 195.62-13.57 196.47-12.74 196.98-11.63 197.5-10.52 197.5-9.01ZM210.95-9.47L210.95 0 202.69 0 202.69-38.57 210.95-38.57 210.95-13.26Q212.97-14.72 214.94-16.48 216.9-18.24 218.69-20.18 220.47-22.12 221.99-24.15 223.52-26.17 224.67-28.2L224.67-28.2 230.28-28.2Q228.57-25.32 226.23-22.45 223.89-19.58 221.13-16.97L221.13-16.97 230.38 0 221.27 0 214.71-11.77Q212.88-10.52 210.95-9.47L210.95-9.47Z" opacity="1" transform="matrix(1,0,0,1,0,0)" fill="white" class="wordmark-text-0" id="SvgjsPath1339"></path></svg></g></svg></g></svg></g></svg></g><g><svg viewBox="0 0 244.43135999999996 210.93340006399995" height="210.93340006399995" width="244.43135999999996"><g><svg xmlns="http://www.w3.org/2000/svg" xmlns:xlink="http://www.w3.org/1999/xlink" version="1.1" x="0" y="0" viewBox="5 11.167000000000002 90 77.666" enable-background="new 0 0 100 100" xml:space="preserve" height="210.93340006399995" width="244.43135999999996" class="icon-icon-0" data-fill-palette-color="accent" id="SvgjsSvg1338"><path fill="black" d="M82.309 63.452c-6.996 0-12.688 5.693-12.688 12.691 0 6.994 5.692 12.688 12.688 12.688C89.311 88.833 95 83.14 95 76.146 95 69.146 89.311 63.452 82.309 63.452zM82.309 81.494c-2.949 0-5.351-2.4-5.351-5.351 0-2.953 2.399-5.354 5.351-5.354 2.953 0 5.354 2.4 5.354 5.354C87.661 79.094 85.262 81.494 82.309 81.494zM26.708 45.413C14.738 45.413 5 55.152 5 67.121c0 11.973 9.738 21.712 21.708 21.712 11.972 0 21.712-9.739 21.712-21.712C48.42 55.152 38.68 45.413 26.708 45.413zM26.708 81.494c-7.923 0-14.369-6.446-14.369-14.373 0-7.923 6.446-14.369 14.369-14.369 7.925 0 14.373 6.446 14.373 14.369C41.081 75.048 34.633 81.494 26.708 81.494zM78.639 48.778h-27.65L36.272 18.506H22.551l-3.219 22.536-7.264-1.04 4.12-28.835h24.678l14.717 30.272h30.396v17.43h-7.34V48.778z"></path></svg></g></svg></g></svg></g><defs><mask></mask></defs></svg><rect width="395.52" height="126.17977658036911" fill="black" stroke="none" visibility="hidden"></rect></g></mask><linearGradient x1="0" x2="1" y1="0.578" y2="0.595" id="e8948c1c-8322-45ab-a643-f5a27601d9a0"><stop stop-color="#dede50" offset="0"></stop><stop stop-color="#559c49" offset="1"></stop></linearGradient><rect width="395.52" height="126.17977658036911" fill="url(#e8948c1c-8322-45ab-a643-f5a27601d9a0)" mask="url(#73d137cc-37e6-402d-b082-90db376c74a8)" data-fill-palette-color="primary"></rect><mask id="4e8a5296-f404-4de5-bcf0-b08870bdf6bc"><g id="SvgjsG1361"><svg viewBox="0 0 395.52 126.17977658036911" height="126.17977658036911" width="395.52"><g><svg viewBox="0 0 661.1866073496674 210.93340006399995" height="126.17977658036911" width="395.52"><g transform="matrix(1,0,0,1,265.6666073496674,60.49125282502549)"><svg viewBox="0 0 395.52 89.95089441394897" height="89.95089441394897" width="395.52"><g id="SvgjsG1360"><svg viewBox="0 0 395.52 89.95089441394897" height="89.95089441394897" width="395.52" id="SvgjsSvg1359"><g><svg viewBox="0 0 395.52 89.95089441394897" height="89.95089441394897" width="395.52"><g transform="matrix(1,0,0,1,0,0)"><svg width="395.52" viewBox="3.56 -38.57 226.82 51.58" height="89.95089441394897" data-palette-color="url(#e8948c1c-8322-45ab-a643-f5a27601d9a0)"></svg></g></svg></g></svg></g></svg></g><g><svg viewBox="0 0 244.43135999999996 210.93340006399995" height="210.93340006399995" width="244.43135999999996"><g><svg xmlns="http://www.w3.org/2000/svg" xmlns:xlink="http://www.w3.org/1999/xlink" version="1.1" x="0" y="0" viewBox="5 11.167000000000002 90 77.666" enable-background="new 0 0 100 100" xml:space="preserve" height="210.93340006399995" width="244.43135999999996" class="icon-icon-0" data-fill-palette-color="accent" id="SvgjsSvg1358"><path fill="white" d="M82.309 63.452c-6.996 0-12.688 5.693-12.688 12.691 0 6.994 5.692 12.688 12.688 12.688C89.311 88.833 95 83.14 95 76.146 95 69.146 89.311 63.452 82.309 63.452zM82.309 81.494c-2.949 0-5.351-2.4-5.351-5.351 0-2.953 2.399-5.354 5.351-5.354 2.953 0 5.354 2.4 5.354 5.354C87.661 79.094 85.262 81.494 82.309 81.494zM26.708 45.413C14.738 45.413 5 55.152 5 67.121c0 11.973 9.738 21.712 21.708 21.712 11.972 0 21.712-9.739 21.712-21.712C48.42 55.152 38.68 45.413 26.708 45.413zM26.708 81.494c-7.923 0-14.369-6.446-14.369-14.373 0-7.923 6.446-14.369 14.369-14.369 7.925 0 14.373 6.446 14.373 14.369C41.081 75.048 34.633 81.494 26.708 81.494zM78.639 48.778h-27.65L36.272 18.506H22.551l-3.219 22.536-7.264-1.04 4.12-28.835h24.678l14.717 30.272h30.396v17.43h-7.34V48.778z"></path></svg></g></svg></g></svg></g><defs><mask></mask></defs><mask><g id="SvgjsG1357"><svg viewBox="0 0 395.52 126.17977658036911" height="126.17977658036911" width="395.52"><g><svg viewBox="0 0 661.1866073496674 210.93340006399995" height="126.17977658036911" width="395.52"><g transform="matrix(1,0,0,1,265.6666073496674,60.49125282502549)"><svg viewBox="0 0 395.52 89.95089441394897" height="89.95089441394897" width="395.52"><g id="SvgjsG1356"><svg viewBox="0 0 395.52 89.95089441394897" height="89.95089441394897" width="395.52" id="SvgjsSvg1355"><g><svg viewBox="0 0 395.52 89.95089441394897" height="89.95089441394897" width="395.52"><g transform="matrix(1,0,0,1,0,0)"><svg width="395.52" viewBox="3.56 -38.57 226.82 51.58" height="89.95089441394897" data-palette-color="url(#e8948c1c-8322-45ab-a643-f5a27601d9a0)"><path d="M37.45-16.82L37.45-16.82 37.45-16.36Q37.4-14.31 37.02-12.11 36.65-9.91 35.96-7.71 35.28-5.52 34.33-3.37 33.37-1.22 32.19 0.74 31.01 2.71 29.64 4.43 28.27 6.15 26.76 7.47L26.76 7.47 23.12 5.37Q23.97 3.93 24.67 2.23 25.37 0.54 25.93-1.32 26.49-3.17 26.89-5.13 27.29-7.08 27.56-9.01 27.83-10.94 27.97-12.81 28.1-14.67 28.1-16.36L28.1-16.36Q28.1-17.68 28.09-19.35 28.08-21.02 27.89-22.75 27.71-24.49 27.29-26.14 26.88-27.78 26.06-29.08 25.24-30.37 23.96-31.15 22.68-31.93 20.78-31.93L20.78-31.93Q19.09-31.93 17.88-31.36 16.67-30.79 15.83-29.82 14.99-28.86 14.49-27.59 13.99-26.32 13.71-24.91 13.43-23.51 13.34-22.08 13.26-20.65 13.26-19.38L13.26-19.38 13.26-12.57 23.78-12.57 23.78-8.54 13.26-8.54 13.26 0 3.56 0 3.56-17.87Q3.56-21.7 4.79-25 6.01-28.3 8.24-30.73 10.47-33.15 13.61-34.53 16.75-35.91 20.61-35.91L20.61-35.91Q23.22-35.91 25.5-35.17 27.78-34.42 29.66-33.12 31.54-31.81 33.02-30.02 34.5-28.22 35.49-26.1 36.47-23.97 36.99-21.61 37.5-19.24 37.45-16.82ZM71.38-28.2L71.38-3.39Q71.38-0.02 70.38 2.95 69.38 5.93 67.48 8.17 65.57 10.4 62.8 11.71 60.03 13.01 56.49 13.01L56.49 13.01Q54.54 13.01 52.55 12.57 50.56 12.13 48.79 11.22 47.02 10.3 45.62 8.9 44.21 7.5 43.41 5.59L43.41 5.59 46.97 4.25Q47.43 5.44 48.18 6.45 48.92 7.45 49.9 8.17 50.88 8.89 52.05 9.29 53.22 9.69 54.51 9.69L54.51 9.69Q56.96 9.69 58.6 8.69 60.25 7.69 61.25 6.08 62.25 4.47 62.69 2.43 63.13 0.39 63.13-1.71L63.13-1.71 63.13-3.37Q61.67-1.37 59.6-0.4 57.54 0.56 55.08 0.56L55.08 0.56Q51.85 0.56 49.31-0.59 46.77-1.73 45.02-3.72 43.26-5.71 42.33-8.4 41.4-11.08 41.4-14.16L41.4-14.16Q41.4-17.24 42.33-19.92 43.26-22.61 45.02-24.6 46.77-26.59 49.31-27.73 51.85-28.88 55.08-28.88L55.08-28.88Q56.71-28.88 58.19-28.39 59.67-27.91 60.9-27.01 62.13-26.12 63.07-24.87 64.01-23.61 64.55-22.07L64.55-22.07 68.21-28.2 71.38-28.2ZM63.08-14.16L63.08-14.16Q63.08-15.26 62.97-16.48 62.86-17.7 62.6-18.9 62.33-20.09 61.85-21.18 61.37-22.27 60.63-23.11 59.89-23.95 58.84-24.44 57.79-24.93 56.39-24.93L56.39-24.93Q55-24.93 53.98-24.43 52.95-23.93 52.22-23.08 51.49-22.24 51.01-21.14 50.53-20.04 50.27-18.85 50-17.65 49.89-16.44 49.78-15.23 49.78-14.16L49.78-14.16Q49.78-13.09 49.89-11.87 50-10.64 50.27-9.45 50.53-8.25 51.01-7.15 51.49-6.05 52.22-5.21 52.95-4.37 53.98-3.87 55-3.37 56.39-3.37L56.39-3.37Q57.66-3.37 58.65-3.89 59.64-4.42 60.39-5.3 61.13-6.18 61.64-7.3 62.16-8.42 62.47-9.62 62.79-10.82 62.94-12 63.08-13.18 63.08-14.16ZM94.67-19.85L94.67-15.36 78.27-15.36 78.27-19.85 94.67-19.85ZM135.78-17.63L135.78-17.63Q135.78-15.06 135.1-12.76 134.42-10.45 133.18-8.5 131.95-6.54 130.24-4.97 128.53-3.39 126.47-2.29 124.41-1.2 122.05-0.6 119.69 0 117.2 0L117.2 0 101.7 0 101.7-35.16 117.2-35.16Q119.69-35.16 122.04-34.57 124.38-33.98 126.45-32.9 128.51-31.81 130.23-30.25 131.95-28.69 133.18-26.75 134.42-24.8 135.1-22.5 135.78-20.19 135.78-17.63ZM125.94-17.63L125.94-17.63Q125.94-20.48 125.25-23.06 124.55-25.63 123.09-27.59 121.62-29.54 119.37-30.69 117.11-31.84 113.96-31.84L113.96-31.84 111.39-31.84 111.39-3.42 113.96-3.42Q117.06-3.42 119.32-4.58 121.57-5.74 123.05-7.7 124.53-9.67 125.24-12.23 125.94-14.79 125.94-17.63ZM147.74-13.38L147.74-13.38Q149.26-13.04 150.77-12.84 152.28-12.65 153.82-12.65L153.82-12.65Q155.43-12.65 156.81-12.95 158.19-13.26 159.21-13.98 160.22-14.7 160.81-15.89 161.39-17.09 161.39-18.87L161.39-18.87Q161.39-20.31 161-21.51 160.61-22.71 159.84-23.56 159.07-24.41 157.95-24.89 156.83-25.37 155.34-25.37L155.34-25.37Q153.95-25.37 152.83-24.85 151.72-24.34 150.88-23.47 150.04-22.61 149.44-21.46 148.84-20.31 148.45-19.07 148.06-17.82 147.89-16.55 147.72-15.28 147.72-14.16L147.72-14.16Q147.72-13.96 147.72-13.77 147.72-13.57 147.74-13.38ZM168.08-18.95L168.08-18.95Q168.08-17.21 167.52-15.86 166.96-14.5 165.99-13.48 165.03-12.45 163.76-11.74 162.49-11.04 161.05-10.58 159.61-10.13 158.08-9.94 156.56-9.74 155.12-9.74L155.12-9.74Q153.29-9.74 151.5-10 149.72-10.25 147.99-10.82L147.99-10.82Q148.26-9.2 148.84-7.75 149.43-6.3 150.41-5.21 151.38-4.13 152.81-3.49 154.24-2.86 156.19-2.86L156.19-2.86Q157.49-2.86 158.66-3.25 159.83-3.64 160.81-4.35 161.78-5.05 162.53-6.03 163.27-7.01 163.74-8.2L163.74-8.2 167.3-6.88Q166.49-4.96 165.09-3.55 163.69-2.15 161.92-1.23 160.15-0.32 158.16 0.12 156.17 0.56 154.21 0.56L154.21 0.56Q150.99 0.56 148.26-0.52 145.52-1.61 143.54-3.56 141.57-5.52 140.44-8.23 139.32-10.94 139.32-14.16L139.32-14.16Q139.32-17.38 140.44-20.09 141.57-22.8 143.54-24.76 145.52-26.71 148.26-27.8 150.99-28.88 154.21-28.88L154.21-28.88Q155.78-28.88 157.41-28.66 159.05-28.44 160.59-27.97 162.12-27.49 163.49-26.73 164.86-25.98 165.87-24.87 166.88-23.75 167.48-22.29 168.08-20.83 168.08-18.95ZM197.5-9.01L197.5-9.01Q197.5-7.15 196.96-5.71 196.42-4.27 195.5-3.21 194.57-2.15 193.3-1.43 192.03-0.71 190.58-0.27 189.12 0.17 187.54 0.37 185.95 0.56 184.39 0.56L184.39 0.56Q182.29 0.56 180.68 0.29 179.06 0.02 177.6-0.57 176.13-1.17 174.68-2.12 173.23-3.08 171.45-4.44L171.45-4.44 176.26-8.37Q176.92-7.13 178-6.12 179.09-5.1 180.26-4.37 181.43-3.64 182.53-3.25 183.63-2.86 184.31-2.86L184.31-2.86Q184.88-2.86 185.58-2.89 186.29-2.93 187.02-3.04 187.76-3.15 188.46-3.37 189.17-3.59 189.72-3.97 190.27-4.35 190.6-4.92 190.93-5.49 190.93-6.3L190.93-6.3Q190.93-7.13 190.5-7.75 190.08-8.37 189.39-8.84 188.71-9.3 187.83-9.62 186.95-9.94 186.06-10.18 185.17-10.42 184.34-10.61 183.51-10.79 182.9-10.96L182.9-10.96Q181.77-11.28 180.53-11.61 179.28-11.94 178.06-12.37 176.84-12.79 175.73-13.38 174.62-13.96 173.78-14.78 172.94-15.6 172.44-16.71 171.94-17.82 171.94-19.31L171.94-19.31Q171.94-22.05 173.02-23.89 174.11-25.73 175.89-26.84 177.67-27.95 179.94-28.42 182.21-28.88 184.56-28.88L184.56-28.88Q186.17-28.88 187.95-28.55 189.73-28.22 191.42-27.58 193.1-26.93 194.57-26 196.03-25.07 197.01-23.88L197.01-23.88 192.2-19.92Q191.66-21.39 190.8-22.44 189.93-23.49 188.92-24.16 187.9-24.83 186.84-25.15 185.78-25.46 184.88-25.46L184.88-25.46Q184-25.46 182.9-25.39 181.8-25.32 180.83-24.98 179.87-24.63 179.2-23.94 178.53-23.24 178.53-22.02L178.53-22.02Q178.53-21.14 178.93-20.52 179.33-19.9 179.99-19.45 180.65-18.99 181.49-18.69 182.34-18.38 183.22-18.15 184.09-17.92 184.92-17.75 185.75-17.58 186.41-17.38L186.41-17.38Q187.54-17.07 188.79-16.74 190.05-16.41 191.27-15.98 192.49-15.55 193.63-14.98 194.76-14.4 195.62-13.57 196.47-12.74 196.98-11.63 197.5-10.52 197.5-9.01ZM210.95-9.47L210.95 0 202.69 0 202.69-38.57 210.95-38.57 210.95-13.26Q212.97-14.72 214.94-16.48 216.9-18.24 218.69-20.18 220.47-22.12 221.99-24.15 223.52-26.17 224.67-28.2L224.67-28.2 230.28-28.2Q228.57-25.32 226.23-22.45 223.89-19.58 221.13-16.97L221.13-16.97 230.38 0 221.27 0 214.71-11.77Q212.88-10.52 210.95-9.47L210.95-9.47Z" opacity="1" transform="matrix(1,0,0,1,0,0)" fill="black" class="wordmark-text-0" id="SvgjsPath1354"></path></svg></g></svg></g></svg></g></svg></g><g><svg viewBox="0 0 244.43135999999996 210.93340006399995" height="210.93340006399995" width="244.43135999999996"><g><svg xmlns="http://www.w3.org/2000/svg" xmlns:xlink="http://www.w3.org/1999/xlink" version="1.1" x="0" y="0" viewBox="5 11.167000000000002 90 77.666" enable-background="new 0 0 100 100" xml:space="preserve" height="210.93340006399995" width="244.43135999999996" class="icon-icon-0" data-fill-palette-color="accent" id="SvgjsSvg1353"><path fill="black" d="M82.309 63.452c-6.996 0-12.688 5.693-12.688 12.691 0 6.994 5.692 12.688 12.688 12.688C89.311 88.833 95 83.14 95 76.146 95 69.146 89.311 63.452 82.309 63.452zM82.309 81.494c-2.949 0-5.351-2.4-5.351-5.351 0-2.953 2.399-5.354 5.351-5.354 2.953 0 5.354 2.4 5.354 5.354C87.661 79.094 85.262 81.494 82.309 81.494zM26.708 45.413C14.738 45.413 5 55.152 5 67.121c0 11.973 9.738 21.712 21.708 21.712 11.972 0 21.712-9.739 21.712-21.712C48.42 55.152 38.68 45.413 26.708 45.413zM26.708 81.494c-7.923 0-14.369-6.446-14.369-14.373 0-7.923 6.446-14.369 14.369-14.369 7.925 0 14.373 6.446 14.373 14.369C41.081 75.048 34.633 81.494 26.708 81.494zM78.639 48.778h-27.65L36.272 18.506H22.551l-3.219 22.536-7.264-1.04 4.12-28.835h24.678l14.717 30.272h30.396v17.43h-7.34V48.778z"></path></svg></g></svg></g></svg></g><defs><mask></mask></defs></svg><rect width="395.52" height="126.17977658036911" fill="black" stroke="none" visibility="hidden"></rect></g></mask></svg><rect width="395.52" height="126.17977658036911" fill="black" stroke="none" visibility="hidden"></rect></g></mask><linearGradient x1="0" x2="1" y1="0.578" y2="0.595" id="2a0ed7de-72ce-44d4-a754-791e948aa8a5"><stop stop-color="#dede50" offset="0"></stop><stop stop-color="#559c49" offset="1"></stop></linearGradient><rect width="395.52" height="126.17977658036911" fill="url(#2a0ed7de-72ce-44d4-a754-791e948aa8a5)" mask="url(#4e8a5296-f404-4de5-bcf0-b08870bdf6bc)" data-fill-palette-color="accent"></rect></svg><rect width="395.52" height="126.17977658036911" fill="none" stroke="none" visibility="hidden"></rect></g></svg></g></svg>